<svg width="26" height="25" viewBox="0 0 26 25" fill="none" xmlns="http://www.w3.org/2000/svg">
<path d="M18.2 7.79993C20.2687 7.79993 22.2526 8.62171 23.7154 10.0845C25.1782 11.5473 26 13.5312 26 15.5999V24.6999H20.8V15.5999C20.8 14.9104 20.5261 14.249 20.0385 13.7614C19.5509 13.2739 18.8896 12.9999 18.2 12.9999C17.5104 12.9999 16.8491 13.2739 16.3615 13.7614C15.8739 14.249 15.6 14.9104 15.6 15.5999V24.6999H10.4V15.5999C10.4 13.5312 11.2218 11.5473 12.6846 10.0845C14.1473 8.62171 16.1313 7.79993 18.2 7.79993Z" fill="white"/>
<path d="M5.2 9.09998H0V24.7H5.2V9.09998Z" fill="white"/>
<path d="M2.6 5.2C4.03594 5.2 5.2 4.03594 5.2 2.6C5.2 1.16406 4.03594 0 2.6 0C1.16406 0 0 1.16406 0 2.6C0 4.03594 1.16406 5.2 2.6 5.2Z" fill="white"/>
</svg>
