<svg xmlns="http://www.w3.org/2000/svg" xmlns:xlink="http://www.w3.org/1999/xlink" width="2000" zoomAndPan="magnify" viewBox="0 0 1500 1499.999933" height="2000" preserveAspectRatio="xMidYMid meet" version="1.0"><rect x="-150" width="1800" fill="#ffffff" y="-149.999993" height="1799.99992" fill-opacity="1"/><rect x="-150" width="1800" fill="#ffffff" y="-149.999993" height="1799.99992" fill-opacity="1"/><path fill="#61a5ff" d="M 976.035156 644.570312 L 1087.375 644.570312 L 1087.539062 1056.015625 L 974.082031 1053.898438 Z M 406.539062 1056.882812 C 417.660156 1002.300781 480.707031 849.996094 502.464844 784.449219 C 533.71875 690.367188 569.640625 618.09375 588.140625 513.320312 L 731.058594 513.429688 L 923.949219 1055.527344 L 799.695312 1055.582031 L 756.234375 925.414062 L 566.113281 926.175781 L 525.148438 1055.800781 Z M 1008.210938 478.921875 C 1045.597656 464.324219 1078.804688 482.445312 1089.816406 510.117188 C 1103.980469 545.765625 1086.617188 584.507812 1057.640625 596.933594 C 978.425781 630.84375 922.699219 512.289062 1008.210938 478.921875 Z M 1360.894531 1179.507812 C 1369.957031 1123.785156 1364.039062 672.785156 1364.039062 577.238281 C 1364.039062 492.972656 1375.761719 363.621094 1344.617188 293.085938 C 1317.59375 231.988281 1252.917969 174.636719 1168.382812 165.195312 C 1110.21875 158.738281 659.652344 163.570312 561.121094 163.730469 C 411.691406 163.894531 179.464844 125.042969 139.691406 345.496094 C 129.761719 400.460938 136.058594 856.289062 136.058594 951.621094 C 136.058594 1040.769531 123.6875 1159.921875 156.839844 1236.316406 C 183.261719 1297.195312 248.644531 1355.253906 334.046875 1362.414062 C 416.195312 1369.359375 824.328125 1363.609375 940.929688 1363.5 C 1018.683594 1363.445312 1164.855469 1375.21875 1227.960938 1347.441406 C 1292.09375 1319.28125 1347.328125 1262.957031 1360.894531 1179.507812 Z M 1360.894531 1179.507812 " fill-opacity="1" fill-rule="evenodd"/><path fill="#ffffff" d="M 660.628906 616.628906 L 721.128906 819.503906 L 598.070312 818.578125 Z M 406.539062 1056.882812 L 525.148438 1055.800781 L 566.113281 926.175781 L 756.234375 925.414062 L 799.695312 1055.582031 L 923.949219 1055.527344 L 731.058594 513.429688 L 588.140625 513.320312 C 569.640625 618.09375 533.71875 690.367188 502.464844 784.449219 C 480.707031 849.996094 417.660156 1002.300781 406.539062 1056.882812 Z M 406.539062 1056.882812 " fill-opacity="1" fill-rule="evenodd"/><path fill="#ffffff" d="M 989.65625 655.476562 C 976.578125 713.699219 988.300781 954.660156 982.65625 1043.808594 C 1009.460938 1047.660156 1048.148438 1049.992188 1073.8125 1042.289062 C 1079.34375 1011.089844 1078.042969 679.082031 1071.207031 656.617188 Z M 989.65625 655.476562 " fill-opacity="1" fill-rule="evenodd"/><path fill="#ffffff" d="M 1008.210938 478.921875 C 922.699219 512.289062 978.425781 630.84375 1057.640625 596.933594 C 1086.617188 584.507812 1103.980469 545.765625 1089.816406 510.117188 C 1078.800781 482.445312 1045.597656 464.324219 1008.210938 478.921875 Z M 1008.210938 478.921875 " fill-opacity="1" fill-rule="evenodd"/><path fill="#61a5ff" d="M 598.070312 818.578125 L 721.128906 819.503906 L 660.628906 616.628906 Z M 598.070312 818.578125 " fill-opacity="1" fill-rule="evenodd"/><path fill="#ffffff" d="M 989.65625 655.476562 L 1071.207031 656.617188 C 1078.042969 679.082031 1079.34375 1011.089844 1073.8125 1042.289062 C 1048.148438 1049.992188 1009.460938 1047.660156 982.65625 1043.808594 C 988.300781 954.660156 976.578125 713.699219 989.65625 655.476562 Z M 974.082031 1053.898438 L 1087.539062 1056.015625 L 1087.375 644.570312 L 976.035156 644.570312 Z M 974.082031 1053.898438 " fill-opacity="1" fill-rule="evenodd"/></svg>