<svg width="22" height="24" viewBox="0 0 22 24" fill="none" xmlns="http://www.w3.org/2000/svg">
<path d="M8.00024 19.0268C3.00024 20.5268 3.00024 16.5268 1.00024 16.0268M15.0002 22.0268V18.1568C15.0378 17.68 14.9733 17.2006 14.8113 16.7506C14.6492 16.3006 14.3932 15.8902 14.0602 15.5468C17.2002 15.1968 20.5002 14.0068 20.5002 8.54679C20.5 7.15062 19.9629 5.80799 19.0002 4.79679C19.4561 3.5753 19.4239 2.22514 18.9102 1.02679C18.9102 1.02679 17.7302 0.676793 15.0002 2.50679C12.7083 1.88561 10.2922 1.88561 8.00024 2.50679C5.27024 0.676793 4.09024 1.02679 4.09024 1.02679C3.57662 2.22514 3.54439 3.5753 4.00024 4.79679C3.03037 5.81549 2.49277 7.17026 2.50024 8.57679C2.50024 13.9968 5.80024 15.1868 8.94024 15.5768C8.61124 15.9168 8.35751 16.3222 8.19555 16.7667C8.0336 17.2112 7.96705 17.6849 8.00024 18.1568V22.0268" stroke="white" stroke-width="2" stroke-linecap="round" stroke-linejoin="round"/>
</svg>
