<svg xmlns="http://www.w3.org/2000/svg" xmlns:xlink="http://www.w3.org/1999/xlink" width="2000" zoomAndPan="magnify" viewBox="0 0 1500 1499.999933" height="2000" preserveAspectRatio="xMidYMid meet" version="1.0"><rect x="-150" width="1800" fill="#ffffff" y="-149.999993" height="1799.99992" fill-opacity="1"/><rect x="-150" width="1800" fill="#ffffff" y="-149.999993" height="1799.99992" fill-opacity="1"/><path fill="#61a5ff" d="M 965.847656 1005.5625 C 987.257812 1055.078125 981.410156 1106.691406 981.738281 1157.671875 C 982.066406 1208.5 982.054688 1259.335938 981.707031 1310.171875 C 981.414062 1347.96875 950.976562 1373.171875 915.882812 1365.472656 C 891.410156 1360.101562 874.210938 1338.789062 874.152344 1312.472656 C 874 1240.636719 873.742188 1168.792969 874.476562 1096.960938 C 874.847656 1061.164062 864.300781 1030.097656 840.117188 1003.792969 C 824.542969 986.851562 818.875 967.53125 827.210938 945.777344 C 835.300781 924.675781 851.808594 914.886719 874.015625 910.757812 C 914.738281 903.1875 956.082031 896.65625 995.359375 884.058594 C 1086.089844 854.953125 1139.21875 790.160156 1158.609375 697.800781 C 1170.492188 641.183594 1176.023438 583.992188 1161.503906 526.796875 C 1152.144531 489.914062 1134.671875 457.015625 1108.695312 429.265625 C 1089.699219 408.976562 1085.15625 387.476562 1094.558594 361.152344 C 1108.566406 321.9375 1110.003906 281.660156 1099.6875 238.613281 C 1085.550781 243.425781 1071.519531 246.480469 1059.121094 252.761719 C 1027.746094 268.660156 996.371094 284.8125 966.429688 303.195312 C 946.347656 315.523438 927.199219 319.203125 904.375 313.300781 C 794.457031 284.855469 684.453125 284.902344 574.367188 313.4375 C 552.058594 319.222656 532.804688 316.378906 513.570312 303.351562 C 475.96875 277.875 436.410156 255.851562 392.488281 242.804688 C 388.566406 241.640625 384.523438 240.871094 379.597656 239.695312 C 371.429688 269.746094 370.777344 299.195312 376.328125 328.71875 C 378.796875 341.847656 382.757812 354.753906 386.808594 367.515625 C 393.335938 388.066406 390.597656 406.914062 375.964844 422.726562 C 328.050781 474.488281 306.773438 535.589844 309.5625 605.746094 C 311.488281 654.265625 317.378906 701.980469 335.472656 747.457031 C 364.789062 821.164062 420.675781 865.882812 494.636719 888.375 C 529.375 898.9375 565.53125 905.339844 601.414062 911.488281 C 637.839844 917.734375 659.390625 940.121094 654.578125 973.125 C 653.042969 983.660156 647.589844 995.082031 640.523438 1003.09375 C 614.96875 1032.054688 604.0625 1065.019531 604.652344 1103.511719 C 605.707031 1172.8125 605.167969 1242.144531 604.902344 1311.460938 C 604.78125 1343.277344 581.996094 1366.738281 551.929688 1367.140625 C 521.667969 1367.546875 498.277344 1343.527344 497.96875 1311.148438 C 497.683594 1280.96875 497.910156 1250.785156 497.910156 1222.191406 C 470.4375 1222.191406 444.0625 1223.609375 417.890625 1221.90625 C 355.46875 1217.847656 303.488281 1190.625 261.097656 1145.433594 C 241.886719 1124.945312 224.652344 1102.589844 206.734375 1080.910156 C 191.933594 1063 176.554688 1047.121094 153.15625 1039.027344 C 127.210938 1030.050781 115.339844 999.207031 124.289062 973.152344 C 133.472656 946.394531 161.25 931.667969 188.800781 938.742188 C 224.390625 947.875 252.160156 968.992188 275.664062 996.136719 C 292.699219 1015.816406 309.050781 1036.109375 325.140625 1056.574219 C 370.183594 1113.867188 428.957031 1125.773438 496.371094 1109.644531 C 497.632812 1091.714844 497.800781 1074.054688 500.398438 1056.757812 C 502.9375 1039.863281 507.957031 1023.34375 511.980469 1006.257812 C 492.796875 1000.40625 472.648438 994.988281 452.992188 988.144531 C 309.277344 938.121094 231.242188 834.484375 209.03125 686.421875 C 200.277344 628.066406 197.296875 569.449219 210.773438 511.105469 C 221.503906 464.664062 240.695312 422.148438 269.042969 383.886719 C 273.925781 377.300781 275.664062 371.464844 273.796875 363.242188 C 258.660156 296.609375 264.15625 231.5 289.589844 168.109375 C 300.152344 141.785156 317.609375 131.203125 345.746094 129.890625 C 412.152344 126.785156 470.136719 152.277344 524.710938 184.992188 C 550.863281 200.667969 573.980469 203.5 603.160156 197.703125 C 702.8125 177.90625 802.738281 180.789062 902.003906 202.160156 C 913.453125 204.625 922.261719 203.492188 932.386719 197.289062 C 981.628906 167.136719 1032.917969 141.140625 1090.691406 131.980469 C 1108.332031 129.1875 1126.8125 129.183594 1144.648438 130.796875 C 1165.925781 132.722656 1180.625 145.609375 1188.730469 165.597656 C 1214.902344 230.113281 1220.800781 296.289062 1205.816406 364.414062 C 1204.664062 369.675781 1205.964844 377.152344 1209.089844 381.4375 C 1261.628906 453.433594 1282.09375 534.199219 1276.714844 622.421875 C 1273.144531 681 1264.117188 738.410156 1241.164062 792.867188 C 1197.753906 895.863281 1119.039062 958.820312 1014.289062 991.90625 C 998.78125 996.800781 982.976562 1000.757812 965.847656 1005.5625 Z M 965.847656 1005.5625 " fill-opacity="1" fill-rule="nonzero"/></svg>