<svg xmlns="http://www.w3.org/2000/svg" xmlns:xlink="http://www.w3.org/1999/xlink" width="2000" zoomAndPan="magnify" viewBox="0 0 1500 1499.999933" height="2000" preserveAspectRatio="xMidYMid meet" version="1.0"><defs><clipPath id="604ceec29d"><path d="M 161.085938 155.542969 L 1349.835938 155.542969 L 1349.835938 1344.292969 L 161.085938 1344.292969 Z M 161.085938 155.542969 " clip-rule="nonzero"/></clipPath></defs><rect x="-150" width="1800" fill="#ffffff" y="-149.999993" height="1799.99992" fill-opacity="1"/><rect x="-150" width="1800" fill="#ffffff" y="-149.999993" height="1799.99992" fill-opacity="1"/><g clip-path="url(#604ceec29d)"><path fill="#61a5ff" d="M 1072.261719 1251.238281 C 968.542969 1251.238281 901.464844 1201.78125 868.769531 1137.105469 L 959.722656 1084.410156 C 983.691406 1123.550781 1014.765625 1152.25 1069.859375 1152.25 C 1116.109375 1152.25 1145.640625 1129.113281 1145.640625 1097.179688 C 1145.640625 1049.171875 1081.558594 1030.363281 1036.335938 1011.007812 C 955.726562 976.695312 902.226562 933.585938 902.226562 842.585938 C 902.226562 758.816406 966.070312 694.996094 1065.890625 694.996094 C 1136.867188 694.996094 1187.992188 719.726562 1224.65625 784.332031 L 1137.675781 840.210938 C 1118.535156 805.898438 1097.800781 792.34375 1065.867188 792.34375 C 1033.125 792.34375 1012.367188 813.101562 1012.367188 840.210938 C 1012.367188 873.738281 1033.101562 887.289062 1081.011719 908.046875 C 1181.402344 951.0625 1257.375 984.898438 1257.375 1095.585938 C 1257.421875 1196.191406 1178.433594 1251.238281 1072.261719 1251.238281 Z M 814.984375 1082.84375 C 814.984375 1198.570312 743.699219 1259.75 644.734375 1259.75 C 555.328125 1259.75 501.78125 1225.558594 475.433594 1166.113281 L 473.886719 1166.113281 L 564.769531 1102.578125 C 582.316406 1133.65625 598.128906 1155.722656 636.410156 1155.722656 C 673.148438 1155.722656 696.09375 1137.128906 696.09375 1081.296875 L 696.09375 690.550781 L 814.984375 690.550781 Z M 161.089844 1344.449219 L 1349.992188 1344.449219 L 1349.992188 155.546875 L 161.089844 155.546875 Z M 161.089844 1344.449219 " fill-opacity="1" fill-rule="evenodd"/></g></svg>