<svg xmlns="http://www.w3.org/2000/svg" xmlns:xlink="http://www.w3.org/1999/xlink" width="2000" zoomAndPan="magnify" viewBox="0 0 1500 1499.999933" height="2000" preserveAspectRatio="xMidYMid meet" version="1.0"><defs><clipPath id="3d75dde237"><path d="M 107.144531 192 L 1392.644531 192 L 1392.644531 1308 L 107.144531 1308 Z M 107.144531 192 " clip-rule="nonzero"/></clipPath></defs><rect x="-150" width="1800" fill="#ffffff" y="-149.999993" height="1799.99992" fill-opacity="1"/><rect x="-150" width="1800" fill="#ffffff" y="-149.999993" height="1799.99992" fill-opacity="1"/><path fill="#61a5ff" d="M 864.808594 748.96875 C 864.808594 687.492188 813.410156 637.648438 750 637.648438 C 686.59375 637.648438 635.1875 687.492188 635.1875 748.96875 C 635.1875 810.449219 686.59375 860.289062 750 860.289062 C 813.410156 860.289062 864.808594 810.449219 864.808594 748.96875 Z M 864.808594 748.96875 " fill-opacity="1" fill-rule="nonzero"/><g clip-path="url(#3d75dde237)"><path fill="#61a5ff" d="M 1122.871094 542.300781 C 1147.117188 446.777344 1177.589844 269.636719 1070.15625 209.578125 C 963.226562 149.785156 824.074219 264.363281 750.59375 333.136719 C 677.328125 265.046875 534.269531 150.960938 426.925781 211.207031 C 320.035156 271.203125 353 445.40625 377.78125 541.53125 C 278.070312 568.988281 107.144531 628.132812 107.144531 748.96875 C 107.144531 869.460938 277.890625 933.804688 377.011719 961.238281 C 352.136719 1057.894531 320.828125 1229.609375 427.855469 1289.472656 C 535.597656 1349.707031 678.210938 1238.335938 752.371094 1168.808594 C 826.324219 1237.988281 964.136719 1350.089844 1071.089844 1290.058594 C 1178.378906 1229.839844 1150.4375 1055.074219 1125.652344 958.390625 C 1221.738281 930.898438 1392.855469 867.957031 1392.855469 748.96875 C 1392.855469 629.292969 1221.011719 569.671875 1122.871094 542.300781 Z M 1110.691406 907.15625 C 1094.417969 857.210938 1072.453125 804.097656 1045.585938 749.234375 C 1071.234375 695.660156 1092.34375 643.234375 1108.164062 593.609375 C 1180.105469 613.835938 1337.933594 660.054688 1337.933594 748.96875 C 1337.933594 838.714844 1186.480469 885.371094 1110.691406 907.15625 Z M 1043.570312 1243.96875 C 963.769531 1288.753906 845.230469 1181.554688 790.617188 1130.609375 C 826.847656 1092.1875 863.054688 1047.523438 898.390625 997.921875 C 960.550781 992.578125 1019.269531 983.835938 1072.523438 971.902344 C 1089.964844 1040.289062 1123.71875 1198.984375 1043.570312 1243.96875 Z M 455.296875 1243.332031 C 375.488281 1198.714844 411.96875 1045.480469 430.265625 974.285156 C 482.929688 985.582031 541.222656 993.707031 603.53125 998.605469 C 639.097656 1047.136719 676.351562 1091.746094 713.894531 1130.816406 C 667.511719 1174.320312 535.476562 1288.15625 455.296875 1243.332031 Z M 162.0625 748.96875 C 162.0625 658.886719 318.945312 613 392.53125 592.824219 C 408.621094 643.566406 429.726562 696.617188 455.195312 750.265625 C 429.394531 804.710938 407.988281 858.605469 391.75 909.941406 C 321.585938 890.46875 162.0625 839.105469 162.0625 748.96875 Z M 454.445312 257.296875 C 534.578125 212.324219 658.914062 321.851562 712.109375 371.148438 C 674.757812 410.039062 637.847656 454.3125 602.582031 502.566406 C 542.117188 508 484.230469 516.726562 431.015625 528.417969 C 411.054688 450.886719 374.394531 302.222656 454.445312 257.296875 Z M 937.683594 560.449219 C 978.703125 565.464844 1018.007812 572.144531 1054.914062 580.3125 C 1043.835938 614.742188 1030.027344 650.746094 1013.761719 687.65625 C 990.1875 644.285156 964.878906 601.78125 937.683594 560.449219 Z M 750.609375 409.207031 C 775.945312 435.8125 801.316406 465.527344 826.273438 497.765625 C 775.648438 495.441406 724.941406 495.433594 674.3125 497.730469 C 699.292969 465.792969 724.882812 436.121094 750.609375 409.207031 Z M 486.707031 687.617188 C 470.710938 650.835938 457.027344 614.675781 445.851562 579.75 C 482.535156 571.792969 521.65625 565.285156 562.414062 560.347656 C 535.140625 601.59375 509.875 644.078125 486.707031 687.617188 Z M 563.582031 941.386719 C 521.480469 936.832031 481.765625 930.65625 445.09375 922.914062 C 456.445312 887.378906 470.433594 850.433594 486.769531 812.863281 C 510.257812 856.855469 535.90625 899.75 563.582031 941.386719 Z M 752.132812 1092.492188 C 726.101562 1065.257812 700.132812 1035.132812 674.777344 1002.730469 C 725.691406 1004.667969 776.703125 1004.671875 827.613281 1002.472656 C 802.574219 1035.460938 777.292969 1065.628906 752.132812 1092.492188 Z M 1014.285156 810.949219 C 1031.46875 848.929688 1045.957031 885.671875 1057.464844 920.609375 C 1020.183594 928.859375 979.933594 935.503906 937.527344 940.433594 C 964.925781 898.316406 990.636719 855.152344 1014.285156 810.949219 Z M 867.738281 946.890625 C 789.859375 952.285156 711.496094 952.226562 633.589844 947.332031 C 589.324219 884.636719 549.914062 818.699219 515.898438 750.25 C 549.753906 681.9375 588.871094 616.132812 632.929688 553.535156 C 710.890625 547.820312 789.332031 547.804688 867.292969 553.570312 C 910.972656 616.160156 950.035156 681.796875 984.671875 749.488281 C 950.445312 817.765625 911.121094 883.707031 867.738281 946.890625 Z M 1042.726562 255.710938 C 1122.878906 300.539062 1087.203125 459.742188 1069.691406 528.96875 C 1016.351562 517.035156 958.425781 508.152344 897.78125 502.632812 C 862.449219 453.859375 825.847656 409.507812 789.101562 371.121094 C 842.976562 320.761719 963.34375 211.324219 1042.726562 255.710938 Z M 1042.726562 255.710938 " fill-opacity="1" fill-rule="evenodd"/></g></svg>