<svg xmlns="http://www.w3.org/2000/svg" xmlns:xlink="http://www.w3.org/1999/xlink" width="2000" zoomAndPan="magnify" viewBox="0 0 1500 1499.999933" height="2000" preserveAspectRatio="xMidYMid meet" version="1.0"><defs><clipPath id="ba35f4692a"><path d="M 138.046875 90 L 1351 90 L 1351 1410 L 138.046875 1410 Z M 138.046875 90 " clip-rule="nonzero"/></clipPath></defs><rect x="-150" width="1800" fill="#ffffff" y="-149.999993" height="1799.99992" fill-opacity="1"/><rect x="-150" width="1800" fill="#ffffff" y="-149.999993" height="1799.99992" fill-opacity="1"/><g clip-path="url(#ba35f4692a)"><path fill="#61a5ff" d="M 692.019531 90.5625 C 360.667969 90.5625 138.046875 213.296875 138.046875 327.90625 C 138.046875 442.570312 360.667969 565.355469 692.019531 565.355469 C 1023.347656 565.355469 1245.890625 442.570312 1245.890625 327.90625 C 1245.890625 213.296875 1023.347656 90.5625 692.019531 90.5625 Z M 138.046875 449.542969 L 138.046875 595.699219 C 138.046875 708.433594 360.667969 829.125 692.019531 829.125 C 1023.347656 829.125 1245.890625 708.433594 1245.890625 595.699219 L 1245.890625 449.542969 C 1149.035156 548.5625 940.257812 618.109375 692.019531 618.109375 C 443.730469 618.109375 234.929688 548.535156 138.046875 449.542969 Z M 138.046875 721.246094 L 138.046875 860.65625 C 138.046875 951.761719 283.585938 1047.246094 514.335938 1080.535156 L 516.910156 1066.523438 L 701.5 1066.523438 C 733.839844 1066.523438 762.53125 1074.734375 786.296875 1089.242188 C 789.121094 1089.03125 792.003906 1088.886719 794.800781 1088.675781 L 821.484375 961.011719 L 998.449219 961.011719 L 978.050781 1058.742188 C 1144.859375 1015.21875 1245.890625 936.464844 1245.890625 860.65625 L 1245.890625 721.246094 C 1149.035156 820.214844 940.257812 881.882812 692.019531 881.882812 C 443.730469 881.882812 234.929688 820.214844 138.046875 721.246094 Z M 138.046875 986.207031 L 138.046875 1123.242188 C 138.046875 1207.996094 263.933594 1297.230469 467.195312 1336.324219 L 504.597656 1133.238281 C 341.136719 1110.84375 209.292969 1059.007812 138.046875 986.207031 Z M 1245.890625 986.207031 C 1215.847656 1016.910156 1175 1043.890625 1125.597656 1066.523438 L 1245.890625 1066.523438 Z M 864.347656 1013.769531 L 798.199219 1330.296875 L 867.441406 1330.296875 L 900.875 1172.03125 L 956.207031 1172.03125 C 973.851562 1172.03125 985.496094 1174.960938 990.929688 1180.789062 C 996.335938 1186.671875 997.519531 1197.773438 994.378906 1213.8125 L 969.136719 1330.296875 L 1039.457031 1330.296875 L 1066.816406 1204.28125 C 1072.695312 1174.078125 1068.265625 1151.894531 1053.625 1138.441406 C 1038.722656 1124.777344 1012.429688 1119.277344 973.257812 1119.277344 L 911.539062 1119.277344 L 933.539062 1013.769531 Z M 560.804688 1119.277344 L 507.328125 1409.425781 L 577.136719 1409.425781 L 591.046875 1330.296875 L 634.421875 1330.296875 C 725.320312 1330.296875 774.816406 1309.25 793.304688 1231.226562 C 809.210938 1164.203125 768.550781 1119.277344 701.5 1119.277344 Z M 1114.726562 1119.277344 L 1061.25 1409.425781 L 1131.058594 1409.425781 L 1144.96875 1330.296875 L 1188.347656 1330.296875 C 1279.242188 1330.296875 1328.738281 1309.25 1347.226562 1231.226562 C 1363.132812 1164.203125 1322.472656 1119.277344 1255.421875 1119.277344 Z M 620.769531 1172.03125 L 675.121094 1172.03125 C 720.175781 1172.03125 729.65625 1192.339844 727.308594 1214.945312 C 721.269531 1273.132812 685 1277.539062 645.964844 1277.539062 L 600.886719 1277.539062 Z M 1174.695312 1172.03125 L 1229.046875 1172.03125 C 1274.097656 1172.03125 1283.582031 1192.339844 1281.234375 1214.945312 C 1275.191406 1273.132812 1238.925781 1277.539062 1199.886719 1277.539062 L 1154.808594 1277.539062 Z M 1174.695312 1172.03125 " fill-opacity="1" fill-rule="nonzero"/></g></svg>