<svg xmlns="http://www.w3.org/2000/svg" xmlns:xlink="http://www.w3.org/1999/xlink" width="2000" zoomAndPan="magnify" viewBox="0 0 1500 1499.999933" height="2000" preserveAspectRatio="xMidYMid meet" version="1.0"><defs><clipPath id="144c4748f6"><path d="M 215 120.394531 L 1321.863281 120.394531 L 1321.863281 1357.894531 L 215 1357.894531 Z M 215 120.394531 " clip-rule="nonzero"/></clipPath></defs><rect x="-150" width="1800" fill="#ffffff" y="-149.999993" height="1799.99992" fill-opacity="1"/><rect x="-150" width="1800" fill="#ffffff" y="-149.999993" height="1799.99992" fill-opacity="1"/><g clip-path="url(#144c4748f6)"><path fill="#61a5ff" d="M 1321.929688 120.394531 L 1224.261719 1227.296875 L 768.480469 1357.519531 L 312.699219 1227.296875 L 215.03125 120.394531 Z M 501.546875 836.625 L 631.769531 836.625 L 634.949219 918.015625 L 768.480469 963.542969 L 902.011719 918.015625 L 911.675781 771.515625 L 625.285156 771.515625 L 618.671875 641.289062 L 918.289062 641.289062 L 927.953125 511.066406 L 478.785156 511.066406 L 468.992188 380.84375 L 1064.789062 380.84375 L 1048.511719 641.289062 L 1025.621094 1015.683594 L 768.480469 1100.378906 L 511.339844 1015.683594 Z M 501.546875 836.625 " fill-opacity="1" fill-rule="evenodd"/></g></svg>