<svg xmlns="http://www.w3.org/2000/svg" xmlns:xlink="http://www.w3.org/1999/xlink" width="2000" zoomAndPan="magnify" viewBox="0 0 1500 1499.999933" height="2000" preserveAspectRatio="xMidYMid meet" version="1.0"><defs><clipPath id="bc87b86658"><path d="M 113.179688 113.179688 L 1386.679688 113.179688 L 1386.679688 1386.679688 L 113.179688 1386.679688 Z M 113.179688 113.179688 " clip-rule="nonzero"/></clipPath></defs><rect x="-150" width="1800" fill="#ffffff" y="-149.999993" height="1799.99992" fill-opacity="1"/><rect x="-150" width="1800" fill="#ffffff" y="-149.999993" height="1799.99992" fill-opacity="1"/><g clip-path="url(#bc87b86658)"><path fill="#61a5ff" d="M 1068.402344 113.179688 L 1068.402344 1207.703125 L 113.179688 1065.21875 L 1068.402344 1386.808594 L 1386.808594 1254.273438 L 1386.808594 245.519531 Z M 734.074219 299.449219 L 441.539062 588.800781 L 265.417969 456.066406 L 192.78125 480.34375 L 371.886719 657.457031 L 192.78125 834.570312 L 265.417969 858.851562 L 441.539062 726.113281 L 734.074219 1015.265625 L 909.199219 941.039062 L 909.199219 373.875 Z M 734.074219 505.816406 L 734.074219 809.695312 L 533.078125 657.457031 Z M 734.074219 505.816406 " fill-opacity="1" fill-rule="nonzero"/></g></svg>