<svg xmlns="http://www.w3.org/2000/svg" xmlns:xlink="http://www.w3.org/1999/xlink" width="2000" zoomAndPan="magnify" viewBox="0 0 1500 1499.999933" height="2000" preserveAspectRatio="xMidYMid meet" version="1.0"><defs><clipPath id="6e79eed889"><path d="M 188 99 L 1350.214844 99 L 1350.214844 1401 L 188 1401 Z M 188 99 " clip-rule="nonzero"/></clipPath></defs><rect x="-150" width="1800" fill="#ffffff" y="-149.999993" height="1799.99992" fill-opacity="1"/><rect x="-150" width="1800" fill="#ffffff" y="-149.999993" height="1799.99992" fill-opacity="1"/><g clip-path="url(#6e79eed889)"><path fill="#61a5ff" d="M 1343.59375 108.351562 C 1338.21875 102.492188 1330.664062 99.152344 1322.710938 99.152344 L 217.070312 99.152344 C 209.121094 99.152344 201.566406 102.492188 196.1875 108.351562 C 190.8125 114.207031 188.179688 122.074219 188.886719 129.96875 L 288.496094 1245.65625 C 289.542969 1257.3125 297.664062 1267.132812 308.925781 1270.359375 L 761.996094 1399.761719 C 764.515625 1400.46875 767.117188 1400.839844 769.75 1400.839844 C 772.382812 1400.839844 774.984375 1400.46875 777.503906 1399.761719 L 1230.941406 1270.359375 C 1242.203125 1267.132812 1250.328125 1257.3125 1251.375 1245.65625 L 1350.925781 129.96875 C 1351.601562 122.046875 1348.941406 114.207031 1343.59375 108.351562 Z M 1105.132812 493.027344 L 572.828125 493.027344 L 585.476562 637.058594 L 1092.3125 637.058594 L 1054.308594 1062.65625 L 769.722656 1148.707031 L 766.921875 1147.859375 L 485.585938 1062.625 L 470.25 889.164062 L 608.03125 889.164062 L 614.085938 956.511719 L 771.304688 989.449219 L 925.726562 956.453125 L 942.167969 774.359375 L 459.890625 774.359375 L 422.511719 355.359375 L 1117.46875 355.359375 Z M 1105.132812 493.027344 " fill-opacity="1" fill-rule="nonzero"/></g></svg>