<svg xmlns="http://www.w3.org/2000/svg" xmlns:xlink="http://www.w3.org/1999/xlink" width="2000" zoomAndPan="magnify" viewBox="0 0 1500 1499.999933" height="2000" preserveAspectRatio="xMidYMid meet" version="1.0"><rect x="-150" width="1800" fill="#ffffff" y="-149.999993" height="1799.99992" fill-opacity="1"/><rect x="-150" width="1800" fill="#ffffff" y="-149.999993" height="1799.99992" fill-opacity="1"/><path fill="#61a5ff" d="M 840.394531 884.222656 C 867.953125 882.453125 911.332031 901.808594 945.378906 905.347656 C 979.265625 908.886719 1036.851562 902.238281 1013.417969 864.011719 C 994.546875 833.179688 900.929688 825.671875 857.660156 767.175781 C 812.726562 706.480469 848.167969 620.585938 899.75 596.351562 C 981.570312 558.015625 1031.648438 576.78125 1108.964844 595.441406 L 1107.519531 695.328125 C 1062.640625 676.617188 993.582031 646.109375 950.953125 683.425781 C 951.167969 720.957031 968.863281 722.136719 1002.265625 735.007812 C 1070.949219 761.492188 1161.082031 810.929688 1122.421875 910.28125 C 1105.585938 953.605469 1062.53125 986.417969 1003.980469 995.855469 C 957.386719 1003.414062 874.925781 995.960938 840.609375 971.136719 Z M 404.269531 458.769531 C 451.9375 454.480469 610.429688 453.726562 651.339844 463.488281 C 762.648438 490.082031 848.167969 651.792969 722.488281 773.019531 C 663.726562 829.640625 609.679688 816.183594 517.027344 820.097656 L 515.152344 984.113281 L 404.753906 982.558594 Z M 128.246094 1146.039062 C 138.003906 1233.863281 190.871094 1288.394531 252.585938 1318.792969 C 315.90625 1350 453.972656 1338.578125 532.523438 1338.578125 C 726.242188 1338.578125 942.054688 1347.585938 1133.039062 1338.472656 C 1223.921875 1334.128906 1286.386719 1280.191406 1316.410156 1222.121094 C 1352.066406 1153.117188 1340.59375 1034.351562 1340.59375 947.652344 C 1340.59375 847.550781 1340.59375 747.5 1340.59375 647.394531 C 1340.59375 458.820312 1384.078125 250.730469 1214.96875 173.578125 C 1145.855469 142.101562 1020.015625 152.71875 934.65625 152.71875 C 797.285156 152.71875 444.214844 146.179688 333.871094 153.308594 C 245.238281 158.992188 181.597656 210.734375 150.605469 270.945312 C 115.164062 339.738281 126.960938 461.664062 126.960938 545.519531 C 126.960938 645.625 126.960938 745.675781 126.960938 845.78125 C 126.960938 932.695312 119.132812 1064.433594 128.246094 1146.039062 Z M 128.246094 1146.039062 " fill-opacity="1" fill-rule="evenodd"/><path fill="#ffffff" d="M 517.457031 722.136719 L 516.492188 554.691406 C 549.039062 552.867188 602.171875 549.488281 628.445312 562.144531 C 676.863281 585.519531 740.773438 738.921875 517.457031 722.136719 Z M 404.753906 982.558594 L 515.152344 984.113281 L 517.027344 820.097656 C 609.679688 816.183594 663.726562 829.640625 722.488281 773.019531 C 848.167969 651.792969 762.648438 490.082031 651.339844 463.488281 C 610.429688 453.726562 451.9375 454.480469 404.269531 458.769531 Z M 404.753906 982.558594 " fill-opacity="1" fill-rule="evenodd"/><path fill="#ffffff" d="M 840.394531 884.222656 L 840.609375 971.136719 C 874.925781 995.960938 957.386719 1003.414062 1003.980469 995.855469 C 1062.53125 986.417969 1105.585938 953.605469 1122.421875 910.28125 C 1161.082031 810.929688 1070.949219 761.492188 1002.265625 735.007812 C 968.863281 722.136719 951.167969 720.957031 950.953125 683.425781 C 993.582031 646.109375 1062.640625 676.617188 1107.519531 695.328125 L 1108.964844 595.4375 C 1031.648438 576.78125 981.570312 558.015625 899.75 596.351562 C 848.167969 620.585938 812.726562 706.480469 857.660156 767.175781 C 900.929688 825.671875 994.546875 833.179688 1013.417969 864.011719 C 1036.851562 902.238281 979.265625 908.886719 945.378906 905.347656 C 911.332031 901.808594 867.953125 882.453125 840.394531 884.222656 Z M 840.394531 884.222656 " fill-opacity="1" fill-rule="evenodd"/><path fill="#61a5ff" d="M 517.457031 722.136719 C 740.773438 738.921875 676.863281 585.519531 628.445312 562.144531 C 602.171875 549.488281 549.039062 552.867188 516.492188 554.691406 Z M 517.457031 722.136719 " fill-opacity="1" fill-rule="evenodd"/></svg>