<svg xmlns="http://www.w3.org/2000/svg" xmlns:xlink="http://www.w3.org/1999/xlink" width="2000" zoomAndPan="magnify" viewBox="0 0 1500 1499.999933" height="2000" preserveAspectRatio="xMidYMid meet" version="1.0"><rect x="-150" width="1800" fill="#ffffff" y="-149.999993" height="1799.99992" fill-opacity="1"/><rect x="-150" width="1800" fill="#ffffff" y="-149.999993" height="1799.99992" fill-opacity="1"/><path fill="#61a5ff" d="M 397.101562 964.6875 C 287.878906 866.679688 278.496094 685.917969 397.128906 577.445312 C 360.527344 543.125 335.0625 502.226562 320.707031 453.738281 C 284.648438 331.957031 353.101562 190.796875 472.640625 147.242188 C 501.617188 136.683594 533.4375 129.21875 564.078125 128.753906 C 695.847656 126.757812 827.664062 127.167969 959.457031 128.113281 C 1082.515625 128.996094 1189.21875 220.214844 1208.125 341.777344 C 1221.445312 427.410156 1198.949219 503.46875 1137.433594 566.347656 C 1133.796875 570.066406 1129.335938 572.96875 1124.589844 576.785156 C 1177.234375 627.984375 1208.335938 686.550781 1211.128906 759.183594 C 1213.585938 823.109375 1196.144531 879.914062 1157.171875 930.324219 C 1093.132812 1013.152344 963.753906 1066.011719 827.433594 996.230469 C 827.140625 1002.335938 826.722656 1007.710938 826.644531 1013.09375 C 825.828125 1070.597656 828.054688 1128.332031 823.644531 1185.554688 C 815.445312 1291.90625 732.535156 1384.359375 629.074219 1407.878906 C 519.136719 1432.875 405.851562 1385.980469 349.710938 1292.226562 C 286.820312 1187.199219 302.273438 1061.304688 388.769531 973.753906 C 391.652344 970.839844 394.328125 967.71875 397.101562 964.6875 Z M 696.355469 899.855469 L 696.355469 642.757812 C 652.222656 642.757812 609.378906 642.601562 566.539062 642.792969 C 499.320312 643.097656 442.714844 698.382812 440.328125 765.800781 C 437.890625 834.792969 489.6875 895.757812 557.019531 899.382812 C 602.863281 901.851562 648.949219 899.855469 696.355469 899.855469 Z M 827.75 513.429688 C 871.941406 513.429688 914.222656 513.789062 956.496094 513.347656 C 1026.949219 512.613281 1082.605469 456.878906 1083.5 386.734375 C 1083.53125 384.644531 1083.511719 382.554688 1083.441406 380.46875 C 1083.371094 378.378906 1083.25 376.292969 1083.074219 374.210938 C 1082.902344 372.128906 1082.679688 370.050781 1082.402344 367.980469 C 1082.128906 365.910156 1081.804688 363.847656 1081.429688 361.789062 C 1081.050781 359.734375 1080.625 357.691406 1080.148438 355.65625 C 1079.671875 353.621094 1079.148438 351.597656 1078.574219 349.589844 C 1077.996094 347.582031 1077.375 345.589844 1076.699219 343.609375 C 1076.027344 341.632812 1075.304688 339.671875 1074.539062 337.726562 C 1073.769531 335.785156 1072.953125 333.863281 1072.089844 331.960938 C 1071.226562 330.054688 1070.316406 328.175781 1069.359375 326.316406 C 1068.40625 324.457031 1067.40625 322.625 1066.359375 320.816406 C 1065.316406 319.007812 1064.226562 317.222656 1063.09375 315.46875 C 1061.960938 313.710938 1060.785156 311.984375 1059.570312 310.285156 C 1058.351562 308.585938 1057.09375 306.917969 1055.796875 305.28125 C 1054.496094 303.644531 1053.160156 302.042969 1051.78125 300.472656 C 1050.402344 298.898438 1048.988281 297.363281 1047.535156 295.859375 C 1046.082031 294.359375 1044.59375 292.894531 1043.070312 291.464844 C 1041.546875 290.035156 1039.988281 288.644531 1038.394531 287.292969 C 1036.800781 285.941406 1035.175781 284.628906 1033.519531 283.355469 C 1031.863281 282.082031 1030.175781 280.847656 1028.457031 279.660156 C 1026.738281 278.46875 1024.996094 277.320312 1023.222656 276.214844 C 1021.449219 275.113281 1019.648438 274.050781 1017.824219 273.035156 C 1015.996094 272.015625 1014.148438 271.046875 1012.273438 270.121094 C 1010.402344 269.195312 1008.507812 268.316406 1006.589844 267.480469 C 1004.675781 266.648438 1002.738281 265.863281 1000.785156 265.125 C 998.828125 264.386719 996.855469 263.695312 994.867188 263.054688 C 992.878906 262.410156 990.878906 261.820312 988.859375 261.277344 C 986.84375 260.730469 984.8125 260.238281 982.769531 259.792969 C 980.730469 259.351562 978.675781 258.957031 976.617188 258.613281 C 974.554688 258.269531 972.488281 257.976562 970.410156 257.734375 C 968.335938 257.492188 966.253906 257.300781 964.171875 257.160156 C 962.085938 257.019531 960 256.929688 957.910156 256.890625 C 917.164062 256.121094 876.394531 256.710938 835.636719 256.761719 C 833.171875 256.761719 830.710938 257.414062 827.757812 257.832031 Z M 695.652344 257.332031 C 648.078125 257.332031 601.476562 254.484375 555.359375 258 C 485.585938 263.3125 436.53125 323.78125 440.492188 394.058594 C 444.253906 460.8125 500.050781 513 568.230469 513.386719 C 596.976562 513.546875 625.726562 513.421875 654.476562 513.425781 L 695.652344 513.425781 Z M 695.328125 1029.359375 C 653.160156 1029.359375 610.90625 1028.03125 568.800781 1029.953125 C 549.503906 1030.832031 529.179688 1035.136719 511.605469 1043 C 457.78125 1067.058594 429.007812 1131.253906 443.878906 1188.5625 C 459.496094 1248.773438 513.324219 1288.695312 575.097656 1285.886719 C 635.136719 1283.152344 689.234375 1237.898438 694.449219 1179.085938 C 698.757812 1130.472656 695.328125 1081.175781 695.328125 1029.359375 Z M 826.992188 771.449219 C 827.011719 843.253906 883.59375 900.175781 954.964844 900.199219 C 1025.644531 900.222656 1083.542969 842.160156 1083.519531 771.285156 C 1083.519531 769.179688 1083.464844 767.074219 1083.359375 764.972656 C 1083.253906 762.871094 1083.097656 760.773438 1082.886719 758.679688 C 1082.679688 756.585938 1082.421875 754.496094 1082.109375 752.414062 C 1081.796875 750.332031 1081.4375 748.261719 1081.023438 746.195312 C 1080.613281 744.132812 1080.148438 742.078125 1079.636719 740.039062 C 1079.121094 737.996094 1078.558594 735.96875 1077.945312 733.957031 C 1077.332031 731.941406 1076.671875 729.945312 1075.960938 727.964844 C 1075.25 725.984375 1074.488281 724.019531 1073.683594 722.078125 C 1072.875 720.132812 1072.019531 718.210938 1071.121094 716.308594 C 1070.21875 714.40625 1069.269531 712.527344 1068.277344 710.671875 C 1067.28125 708.816406 1066.246094 706.988281 1065.160156 705.183594 C 1064.078125 703.378906 1062.949219 701.601562 1061.777344 699.851562 C 1060.609375 698.105469 1059.394531 696.386719 1058.140625 694.695312 C 1056.886719 693.003906 1055.589844 691.347656 1054.253906 689.722656 C 1052.914062 688.097656 1051.539062 686.503906 1050.125 684.945312 C 1048.710938 683.386719 1047.257812 681.863281 1045.769531 680.378906 C 1044.28125 678.890625 1042.753906 677.441406 1041.195312 676.027344 C 1039.632812 674.617188 1038.039062 673.242188 1036.410156 671.910156 C 1034.785156 670.574219 1033.125 669.28125 1031.433594 668.027344 C 1029.742188 666.777344 1028.019531 665.566406 1026.269531 664.398438 C 1024.515625 663.230469 1022.738281 662.105469 1020.933594 661.023438 C 1019.128906 659.945312 1017.296875 658.910156 1015.4375 657.917969 C 1013.582031 656.925781 1011.703125 655.980469 1009.796875 655.082031 C 1007.894531 654.183594 1005.972656 653.332031 1004.027344 652.527344 C 1002.082031 651.726562 1000.117188 650.96875 998.136719 650.261719 C 996.152344 649.554688 994.15625 648.894531 992.140625 648.285156 C 990.125 647.675781 988.097656 647.117188 986.054688 646.605469 C 984.011719 646.09375 981.960938 645.636719 979.894531 645.226562 C 977.832031 644.816406 975.757812 644.457031 973.675781 644.148438 C 971.59375 643.84375 969.503906 643.585938 967.410156 643.382812 C 965.316406 643.175781 963.21875 643.023438 961.113281 642.921875 C 959.011719 642.820312 956.910156 642.769531 954.804688 642.769531 C 883.210938 642.824219 826.972656 699.445312 826.992188 771.449219 Z M 826.992188 771.449219 " fill-opacity="1" fill-rule="nonzero"/></svg>